<?xml version="1.0" encoding="utf-8"?>
<!-- Generator: Adobe Illustrator 24.0.1, SVG Export Plug-In . SVG Version: 6.00 Build 0)  -->
<svg version="1.1" id="Layer_1" xmlns="http://www.w3.org/2000/svg" xmlns:xlink="http://www.w3.org/1999/xlink" x="0px" y="0px"
	 viewBox="0 0 180 180" style="enable-background:new 0 0 180 180;" xml:space="preserve">
<style type="text/css">
	.st0{fill:#FFFFFF;}
	.st1{fill:#D1D3D4;}
</style>
<g>
	<path class="st0" d="M69.1,11.25c4.71-1.85,9.67-3.27,14.84-4.31H30.13v36.24c3.27-5.22,7.08-10.01,11.42-14.28
		C49.21,21.36,58.48,15.42,69.1,11.25z"/>
	<path class="st0" d="M63.4,90.05c0,7.58,1.03,14.36,3.07,20.16c0.71,2.03,1.52,3.95,2.42,5.76v-12.11h52.22v-28.5H68.89V64.89
		c-0.9,1.79-1.71,3.67-2.42,5.66C64.43,76.28,63.4,82.84,63.4,90.05z"/>
	<path class="st0" d="M137.07,6.94h-13.86c4.88,1.05,9.54,2.44,13.86,4.17V6.94z"/>
	<path class="st0" d="M38.9,150.77c-3.27-3.56-6.19-7.46-8.77-11.66v33.95H78.1c-4.74-1.06-9.27-2.48-13.52-4.31
		C54.55,164.44,45.91,158.39,38.9,150.77z"/>
	<path class="st0" d="M120.08,173.06h16.99v-5.84c-0.9,0.45-1.8,0.9-2.73,1.3C129.95,170.46,125.17,171.95,120.08,173.06z"/>
	<path class="st1" d="M136.73,125.61l19.8,20.12c-6.37,8.32-14.34,14.6-23.93,18.83c-9.58,4.23-20.93,6.35-34.02,6.35
		c-12.01,0-22.78-2.05-32.29-6.14c-9.51-4.08-17.57-9.72-24.2-16.93c-6.62-7.2-11.7-15.73-15.25-25.61
		c-3.54-9.87-5.32-20.6-5.32-32.17c0-11.79,2.03-22.63,6.08-32.5c4.05-9.87,9.71-18.4,16.99-25.56c7.27-7.16,15.97-12.74,26.1-16.71
		c10.13-3.98,21.3-5.97,33.53-5.97c5.93,0,11.52,0.52,16.76,1.57c5.25,1.05,10.15,2.5,14.7,4.34c4.56,1.85,8.75,4.05,12.59,6.62
		c3.83,2.57,7.23,5.41,10.2,8.52l-19.24,23.71c0,0-6.59-5.24-7.89-6.08c-1.31-0.83-2.73-1.73-4.29-2.71
		c-1.55-0.97-3.4-1.88-5.53-2.71c-2.14-0.83-4.64-1.54-7.49-2.12c-2.86-0.57-6.21-0.87-10.04-0.87c-6.66,0-12.74,1.17-18.23,3.52
		c-5.5,2.36-10.22,5.72-14.17,10.09c-3.94,4.38-7.01,9.68-9.22,15.9c-2.21,6.23-3.31,13.21-3.31,20.95c0,8.11,1.1,15.31,3.31,21.59
		c2.21,6.3,5.21,11.6,9.01,15.91c3.8,4.3,8.22,7.58,13.29,9.82c5.06,2.24,10.49,3.36,16.28,3.36c3.33,0,6.37-0.17,9.11-0.49
		c2.76-0.33,5.3-0.88,7.66-1.68c2.35-0.79,4.59-1.83,6.73-3.09c2.13-1.27,4.28-2.84,6.46-4.72
		C131.78,130.02,136.73,125.61,136.73,125.61z"/>
</g>
</svg>
