<?xml version="1.0" encoding="utf-8"?>
<!-- Generator: Adobe Illustrator 24.0.1, SVG Export Plug-In . SVG Version: 6.00 Build 0)  -->
<svg version="1.1" id="Layer_1" xmlns="http://www.w3.org/2000/svg" xmlns:xlink="http://www.w3.org/1999/xlink" x="0px" y="0px"
	 viewBox="0 0 511.81 510.32" style="enable-background:new 0 0 511.81 510.32;" xml:space="preserve">
<style type="text/css">
	.st0{fill:#FFFFFF;}
</style>
<path class="st0" d="M0,238.91c0-2,0-4,0-6c1-5.03,1.01-10.17,1.28-15.25c1.16-22.12,8.28-42.66,16.61-62.84
	c9.98-24.17,23.68-46.16,40.66-66c29.11-34.01,64.43-59.35,106.5-75C180.18,8.19,195.52,3.3,211.7,1.74
	c7.39-0.71,14.84-0.77,22.21-1.74c1.67,0,3.33,0,5,0c2,0.79,4,0.79,6,0c7.33,0,14.66,0,21.99,0c2,0.79,4,0.79,6,0c1.67,0,3.33,0,5,0
	c7.37,0.99,14.82,1.07,22.22,1.72c14.7,1.29,28.66,5.67,42.44,10.52c26.42,9.29,50.66,22.67,72.67,40.02
	c26.02,20.51,47.52,44.97,64.23,73.6c13.43,23.02,22.99,47.57,28.81,73.59c2.26,10.1,2.15,20.41,3.04,30.62
	c0.11,1.29-0.43,2.67,0.49,3.85c0,1.67,0,3.33,0,5c-0.79,2-0.79,4,0,6c0,7.33,0,14.66,0,21.99c-0.79,2-0.79,4,0,6c0,2,0,4,0,6
	c-0.99,4.88-1.07,9.87-1.28,14.8c-0.92,21.85-7.89,42.13-16.04,62.03c-13.44,32.83-33.31,61.45-58.78,86.02
	c-35.62,34.36-77.75,56.81-126.21,67.21c-3.43,0.74-6.93,0.83-10.39,1.29c-3.22,0.43-5.06-1.07-5.39-4.36
	c-0.22-2.16-0.24-4.32-0.24-6.49c-0.02-53.31-0.02-106.62,0-159.93c0.01-11.76,0.25-11.98,12.06-12.02
	c12.83-0.04,25.65,0.01,38.48-0.02c8.61-0.02,9.61-0.73,10.92-9.4c2.65-17.45,5.48-34.87,8.08-52.33c0.84-5.63-0.57-7.29-6.38-7.33
	c-16.66-0.11-33.32-0.02-49.98-0.05c-2.5,0-5-0.01-7.49-0.18c-3.31-0.22-5.44-1.78-5.45-5.23c-0.04-18.14-1.6-36.33,0.82-54.38
	c2.37-17.72,15.07-29.5,32.79-32.05c10.3-1.48,20.62-0.77,30.93-0.97c8.13-0.16,9.15-1.08,9.17-9.31
	c0.03-13.83,0.07-27.65-0.02-41.48c-0.04-6.33-1.03-7.68-7.24-8.58c-23.28-3.4-46.63-5.96-70.07-1.84
	c-16.72,2.93-31.91,9.53-44.43,21.31c-8.36,7.86-14.74,17.2-18.98,27.87c-5.59,14.07-8.47,28.68-8.36,43.89
	c0.13,17.16,0.11,34.32-0.01,51.48c-0.06,8.56-0.92,9.39-9.57,9.46c-15.33,0.12-30.65,0.01-45.98,0.05
	c-8.31,0.02-9.35,1.01-9.37,9.08c-0.04,17.16-0.05,34.32,0.01,51.48c0.02,7.29,1.2,8.48,8.4,8.51c15.66,0.07,31.32-0.06,46.98,0.06
	c8.63,0.07,9.51,0.9,9.53,9.48c0.09,54.81,0.06,109.62,0.02,164.42c0,1.5-0.08,3-0.23,4.49c-0.32,3.3-2.17,4.79-5.39,4.37
	c-3.62-0.48-7.29-0.62-10.88-1.4c-42.51-9.22-80.51-27.72-113.52-56.04c-41.67-35.75-69.39-80.33-83.28-133.5
	c-3.18-12.17-3.68-24.61-4.54-37.03c-0.08-1.14,0.3-2.35-0.5-3.38c0-2,0-4,0-6c0.79-2,0.79-4,0-6c0-7.33,0-14.66,0-21.99
	C0.79,242.91,0.79,240.91,0,238.91z"/>
</svg>
